<svg width="128" height="128" viewBox="0 0 128 128" fill="none" xmlns="http://www.w3.org/2000/svg">
<rect width="128" height="128" fill="#A3D2FF"/>
<path d="M59.8281 78.8438C59.8281 81.625 59.2969 84.2344 58.2344 86.6719C57.1719 89.1094 55.7188 91.25 53.875 93.0938C52.0625 94.9062 49.9375 96.3438 47.5 97.4062C45.0625 98.4688 42.4531 99 39.6719 99H12.7656V85.5469H39.6719C40.6094 85.5469 41.4844 85.375 42.2969 85.0312C43.1094 84.6875 43.8125 84.2188 44.4062 83.625C45.0312 83 45.5156 82.2812 45.8594 81.4688C46.2031 80.6562 46.375 79.7812 46.375 78.8438C46.375 77.9062 46.2031 77.0312 45.8594 76.2188C45.5156 75.4062 45.0312 74.7031 44.4062 74.1094C43.8125 73.4844 43.1094 73 42.2969 72.6562C41.4844 72.3125 40.6094 72.1406 39.6719 72.1406H21.3438V58.6875H39.6719C40.6094 58.6875 41.4844 58.5156 42.2969 58.1719C43.1094 57.8281 43.8125 57.3594 44.4062 56.7656C45.0312 56.1406 45.5156 55.4219 45.8594 54.6094C46.2031 53.7656 46.375 52.875 46.375 51.9375C46.375 51 46.2031 50.125 45.8594 49.3125C45.5156 48.5 45.0312 47.7969 44.4062 47.2031C43.8125 46.5781 43.1094 46.0938 42.2969 45.75C41.4844 45.4062 40.6094 45.2344 39.6719 45.2344H12.7656V31.7812H39.6719C42.4531 31.7812 45.0625 32.3125 47.5 33.375C49.9375 34.4375 52.0625 35.8906 53.875 37.7344C55.7188 39.5469 57.1719 41.6719 58.2344 44.1094C59.2969 46.5469 59.8281 49.1562 59.8281 51.9375C59.8281 54.4062 59.375 56.8125 58.4688 59.1562C57.5625 61.4688 56.2812 63.5469 54.625 65.3906C56.2812 67.2344 57.5625 69.3281 58.4688 71.6719C59.375 73.9844 59.8281 76.375 59.8281 78.8438ZM116.734 99H70.6562V31.7812H116.734V45.2344H84.1094V58.6875H106.188V72.1406H84.1094V85.5469H116.734V99Z" fill="black"/>
</svg>
